<svg xmlns="http://www.w3.org/2000/svg" width="150" height="22.5" viewBox="0 0 200 30">
  <defs>
    <style>
      .cls-1 {
        fill: #757576;
        fill-rule: evenodd;
      }
    </style>
  </defs>
  <path id="Reading_Meter" data-name="Reading Meter" class="cls-1" d="M0.135,22.762H4.31v-8.4H6.258l5.721,8.4h4.793v-0.25L10.835,13.92l0.031-.219a7.645,7.645,0,0,0,1.825-.953,7.551,7.551,0,0,0,1.515-1.406,6.336,6.336,0,0,0,1.021-1.781A5.928,5.928,0,0,0,15.6,7.453a7.458,7.458,0,0,0-.526-2.827,6.4,6.4,0,0,0-1.5-2.234A6.993,6.993,0,0,0,11.237.923,8.277,8.277,0,0,0,8.207.392H0.135v22.37ZM4.31,10.484V4.266H8.238a3.39,3.39,0,0,1,1.376.266,2.974,2.974,0,0,1,1.005.7,2.925,2.925,0,0,1,.6,1,3.416,3.416,0,0,1,.2,1.156,2.942,2.942,0,0,1-.912,2.218,3.235,3.235,0,0,1-2.335.875H4.31Zm25.141,6.9A4.66,4.66,0,0,1,28.014,19a3.915,3.915,0,0,1-2.3.64,4.825,4.825,0,0,1-1.392-.2,3.707,3.707,0,0,1-1.252-.656,3.876,3.876,0,0,1-.959-1.125,4.323,4.323,0,0,1-.51-1.609H33.008a1.76,1.76,0,0,1,.031-0.344,2.106,2.106,0,0,1,.031-0.344V14.983a9.934,9.934,0,0,0-.495-3.187,7.287,7.287,0,0,0-1.454-2.546A6.628,6.628,0,0,0,28.74,7.562a8.181,8.181,0,0,0-3.247-.609,7.545,7.545,0,0,0-3.17.656,7.925,7.925,0,0,0-2.489,1.765A8.013,8.013,0,0,0,18.2,11.968a8.448,8.448,0,0,0-.588,3.14,8.591,8.591,0,0,0,.6,3.265A7.779,7.779,0,0,0,19.9,20.95a7.687,7.687,0,0,0,2.551,1.7,8.269,8.269,0,0,0,3.2.609,7.807,7.807,0,0,0,4.345-1.156,8.541,8.541,0,0,0,2.83-3.03Zm-7.638-4.249A3.958,3.958,0,0,1,23.2,11.046a3.685,3.685,0,0,1,2.288-.75,4.077,4.077,0,0,1,1.593.281A3.563,3.563,0,0,1,28.2,11.3a3.2,3.2,0,0,1,.68.937,2.676,2.676,0,0,1,.263.906H21.813ZM45.13,22.762H49.12V13.577a6.326,6.326,0,0,0-1.855-4.952,7.785,7.785,0,0,0-5.381-1.671A7.933,7.933,0,0,0,35.3,10.015l2.938,2.031a4.432,4.432,0,0,1,3.556-1.781,3.6,3.6,0,0,1,2.381.8,2.51,2.51,0,0,1,.959,2.015v0.469a11.824,11.824,0,0,0-1.577-.484,10.546,10.546,0,0,0-2.443-.234,8.075,8.075,0,0,0-2.459.359,5.846,5.846,0,0,0-1.964,1.047,4.733,4.733,0,0,0-1.763,3.78,5.139,5.139,0,0,0,.433,2.124,4.809,4.809,0,0,0,1.206,1.656,5.724,5.724,0,0,0,1.809,1.078,6.217,6.217,0,0,0,2.211.391,4.825,4.825,0,0,0,2.582-.625,6.86,6.86,0,0,0,1.716-1.5H45.13v1.625Zm-0.263-4.89A3.439,3.439,0,0,1,44.125,19a3.707,3.707,0,0,1-2.644,1.078,2.852,2.852,0,0,1-1.747-.562,1.775,1.775,0,0,1-.758-1.5,1.96,1.96,0,0,1,.789-1.578,3.474,3.474,0,0,1,2.242-.641,6.385,6.385,0,0,1,1.654.2,8.378,8.378,0,0,1,1.469.547A3.469,3.469,0,0,1,44.867,17.872Zm18.57,4.89h3.8V0.392H63.19V7.109L63.437,9.3H63.19A4.624,4.624,0,0,0,61.458,7.64a5.68,5.68,0,0,0-2.907-.687,6.5,6.5,0,0,0-2.768.609,7.4,7.4,0,0,0-2.319,1.687,8.014,8.014,0,0,0-1.593,2.578,8.912,8.912,0,0,0-.588,3.28,8.912,8.912,0,0,0,.588,3.28,8.013,8.013,0,0,0,1.593,2.578,7.394,7.394,0,0,0,2.319,1.687,6.5,6.5,0,0,0,2.768.609,5.68,5.68,0,0,0,2.907-.687,4.616,4.616,0,0,0,1.732-1.656h0.247v1.843Zm-5.582-3.593a4.022,4.022,0,0,1-1.283-.875,4.27,4.27,0,0,1-.9-1.375,5,5,0,0,1,0-3.624,4.276,4.276,0,0,1,.9-1.375,4.03,4.03,0,0,1,1.283-.875,3.838,3.838,0,0,1,1.531-.312,4.014,4.014,0,0,1,1.531.3,3.829,3.829,0,0,1,1.283.859,4.281,4.281,0,0,1,.9,1.375,4.738,4.738,0,0,1,.34,1.843,4.737,4.737,0,0,1-.34,1.843,4.276,4.276,0,0,1-.9,1.375,3.821,3.821,0,0,1-1.283.859,4,4,0,0,1-1.531.3A3.831,3.831,0,0,1,57.856,19.169ZM74.787,4.626a2.519,2.519,0,0,0,.773-1.859A2.52,2.52,0,0,0,74.787.908,2.617,2.617,0,0,0,71.926.345a2.579,2.579,0,0,0-.835.562,2.648,2.648,0,0,0-.557.828,2.582,2.582,0,0,0-.2,1.031,2.582,2.582,0,0,0,.2,1.031,2.643,2.643,0,0,0,.557.828A2.613,2.613,0,0,0,74.787,4.626Zm0.186,18.136V7.453H70.921V22.762h4.051ZM82.456,7.453h-3.8V22.762H82.7v-7.5a6.519,6.519,0,0,1,.232-1.765,4.4,4.4,0,0,1,.68-1.437,3.438,3.438,0,0,1,1.082-.968,2.93,2.93,0,0,1,1.469-.359,2.723,2.723,0,0,1,2.118.8,3.549,3.549,0,0,1,.727,2.452v8.779h4.051V13.483a9.414,9.414,0,0,0-.356-2.671A5.9,5.9,0,0,0,91.656,8.75a4.6,4.6,0,0,0-1.778-1.328,6.259,6.259,0,0,0-2.5-.469,5.561,5.561,0,0,0-2.752.672A5.161,5.161,0,0,0,82.7,9.453H82.456v-2Zm24.013,21.979a7.114,7.114,0,0,0,2.52-1.656,7.538,7.538,0,0,0,1.639-2.624,9.767,9.767,0,0,0,.587-3.484V7.453H107.35V9.109H107.1a4.985,4.985,0,0,0-1.871-1.578,6.072,6.072,0,0,0-2.737-.578,6.579,6.579,0,0,0-2.644.557A6.927,6.927,0,0,0,97.578,9.1a8.173,8.173,0,0,0-1.608,2.506,8.33,8.33,0,0,0-.619,3.264,8.192,8.192,0,0,0,2.227,5.739,6.921,6.921,0,0,0,2.273,1.593,6.579,6.579,0,0,0,2.644.556,6.065,6.065,0,0,0,2.737-.578,4.976,4.976,0,0,0,1.871-1.578h0.247v1.062a5.039,5.039,0,0,1-1.113,3.461,4.132,4.132,0,0,1-5.227.585,3.71,3.71,0,0,1-1.422-1.89l-3.866,1.562a5.806,5.806,0,0,0,.9,1.625,7.318,7.318,0,0,0,1.546,1.484,8.1,8.1,0,0,0,2.181,1.093,8.943,8.943,0,0,0,2.86.422A8.847,8.847,0,0,0,106.469,29.432ZM101.907,18.8a3.783,3.783,0,0,1-1.268-.813,4.049,4.049,0,0,1-.9-1.319,4.457,4.457,0,0,1-.34-1.795,4.455,4.455,0,0,1,.34-1.794,4.233,4.233,0,0,1,.9-1.335,3.671,3.671,0,0,1,1.268-.828,3.986,3.986,0,0,1,1.454-.276,4.112,4.112,0,0,1,1.469.276,3.747,3.747,0,0,1,1.283.813,4.017,4.017,0,0,1,.9,1.334,4.588,4.588,0,0,1,.34,1.81,4.476,4.476,0,0,1-.34,1.8,4.057,4.057,0,0,1-.9,1.319,3.748,3.748,0,0,1-1.283.813,4.112,4.112,0,0,1-1.469.276A3.985,3.985,0,0,1,101.907,18.8ZM124.76,9.484l-0.123-3.749h0.123l6.927,12.278h1.67l6.927-12.278h0.124l-0.124,3.749V22.762h2.845V0.392h-2.845l-7.7,13.622H132.46l-7.7-13.622h-2.845v22.37h2.845V9.484Zm33.2,12.685a7.6,7.6,0,0,0,2.829-3.031l-2.536-1.25a4.767,4.767,0,0,1-7.669,1.375,5.014,5.014,0,0,1-1.484-3.624H161l0.031-.312a8.865,8.865,0,0,0-2-6.17,7.506,7.506,0,0,0-10.746.125,8.362,8.362,0,0,0-2.1,5.827,8.207,8.207,0,0,0,2.165,5.842,7.209,7.209,0,0,0,5.5,2.312A7.767,7.767,0,0,0,157.958,22.168Zm-7.113-11.591a4.1,4.1,0,0,1,2.768-1,4.466,4.466,0,0,1,3.108,1.047A3.829,3.829,0,0,1,158,13.264h-8.69A4.791,4.791,0,0,1,150.845,10.577Zm20.889,12.028-0.9-2.562a3.4,3.4,0,0,1-.6.2,2.821,2.821,0,0,1-.664.078,1.9,1.9,0,0,1-1.33-.547,2.813,2.813,0,0,1-.588-2.078V10.077h3.711V7.453h-3.711V2.767h-2.845V7.453h-2.659v2.624h2.659v8.56a4.132,4.132,0,0,0,4.33,4.374,7.576,7.576,0,0,0,2.6-.406h0Zm13.066-.437a7.6,7.6,0,0,0,2.829-3.031l-2.535-1.25a4.768,4.768,0,0,1-7.67,1.375,5.014,5.014,0,0,1-1.484-3.624h11.906l0.031-.312a8.865,8.865,0,0,0-2-6.17,7.506,7.506,0,0,0-10.746.125,8.366,8.366,0,0,0-2.1,5.827A8.211,8.211,0,0,0,175.2,20.95a7.21,7.21,0,0,0,5.5,2.312A7.767,7.767,0,0,0,184.8,22.168Zm-7.113-11.591a4.1,4.1,0,0,1,2.768-1,4.464,4.464,0,0,1,3.108,1.047,3.825,3.825,0,0,1,1.283,2.64h-8.689A4.784,4.784,0,0,1,177.687,10.577Zm15.6,3.749a4.412,4.412,0,0,1,1.19-3.062,3.668,3.668,0,0,1,2.8-1.312,4.681,4.681,0,0,1,1.67.219l0.866-2.781a5.288,5.288,0,0,0-2.1-.375,4.9,4.9,0,0,0-2.644.859,4.135,4.135,0,0,0-1.778,2.078h-0.124v-2.5h-2.721V22.762h2.845V14.326Z"/>
</svg>
